{
    "asset" : {
        "generator" : "Khronos glTF Blender I/O v1.8.19",
        "version" : "2.0"
    },
    "scene" : 0,
    "scenes" : [
        {
            "name" : "Scene",
            "nodes" : [
                0,
                1
            ]
        }
    ],
    "nodes" : [
        {
            "mesh" : 0,
            "name" : "Sphere.009",
            "rotation" : [
                0.6970503926277161,
                0.11883080005645752,
                -0.11883079260587692,
                0.6970503926277161
            ],
            "scale" : [
                0,
                0,
                0
            ],
            "translation" : [
                0.10293422639369965,
                -1.3187216520309448,
                0.29268139600753784
            ]
        },
        {
            "mesh" : 1,
            "name" : "Sphere.001",
            "rotation" : [
                -0.1133713349699974,
                0.16693705320358276,
                0.01932716928422451,
                0.9792371392250061
            ],
            "scale" : [
                -1.0139178037643433,
                1.0139178037643433,
                1.0139178037643433
            ],
            "translation" : [
                -0.04140324890613556,
                7.894596576690674,
                -0.25498178601264954
            ]
        }
    ],
    "animations" : [
        {
            "channels" : [
                {
                    "sampler" : 0,
                    "target" : {
                        "node" : 0,
                        "path" : "scale"
                    }
                },
                {
                    "sampler" : 1,
                    "target" : {
                        "node" : 0,
                        "path" : "rotation"
                    }
                }
            ],
            "name" : "Sphere.009Action",
            "samplers" : [
                {
                    "input" : 8,
                    "interpolation" : "LINEAR",
                    "output" : 9
                },
                {
                    "input" : 10,
                    "interpolation" : "LINEAR",
                    "output" : 11
                }
            ]
        },
        {
            "channels" : [
                {
                    "sampler" : 0,
                    "target" : {
                        "node" : 1,
                        "path" : "translation"
                    }
                },
                {
                    "sampler" : 1,
                    "target" : {
                        "node" : 1,
                        "path" : "rotation"
                    }
                },
                {
                    "sampler" : 2,
                    "target" : {
                        "node" : 1,
                        "path" : "scale"
                    }
                }
            ],
            "name" : "Sphere.001Action",
            "samplers" : [
                {
                    "input" : 12,
                    "interpolation" : "LINEAR",
                    "output" : 13
                },
                {
                    "input" : 14,
                    "interpolation" : "STEP",
                    "output" : 15
                },
                {
                    "input" : 14,
                    "interpolation" : "STEP",
                    "output" : 16
                }
            ]
        }
    ],
    "materials" : [
        {
            "doubleSided" : true,
            "name" : "A1",
            "pbrMetallicRoughness" : {
                "baseColorFactor" : [
                    0.003171283518895507,
                    0.03734465315937996,
                    0.07130445539951324,
                    1
                ],
                "metallicFactor" : 0,
                "roughnessFactor" : 0.6272727251052856
            }
        }
    ],
    "meshes" : [
        {
            "name" : "Sphere.009",
            "primitives" : [
                {
                    "attributes" : {
                        "POSITION" : 0,
                        "NORMAL" : 1,
                        "TEXCOORD_0" : 2
                    },
                    "indices" : 3,
                    "material" : 0
                }
            ]
        },
        {
            "name" : "Sphere.001",
            "primitives" : [
                {
                    "attributes" : {
                        "POSITION" : 4,
                        "NORMAL" : 5,
                        "TEXCOORD_0" : 6
                    },
                    "indices" : 7,
                    "material" : 0
                }
            ]
        }
    ],
    "accessors" : [
        {
            "bufferView" : 0,
            "componentType" : 5126,
            "count" : 738,
            "max" : [
                1.9507194757461548,
                1.9202687740325928,
                0.6483182311058044
            ],
            "min" : [
                -1.9500490427017212,
                -1.332939624786377,
                -0.6516775488853455
            ],
            "type" : "VEC3"
        },
        {
            "bufferView" : 1,
            "componentType" : 5126,
            "count" : 738,
            "type" : "VEC3"
        },
        {
            "bufferView" : 2,
            "componentType" : 5126,
            "count" : 738,
            "type" : "VEC2"
        },
        {
            "bufferView" : 3,
            "componentType" : 5123,
            "count" : 3780,
            "type" : "SCALAR"
        },
        {
            "bufferView" : 4,
            "componentType" : 5126,
            "count" : 559,
            "max" : [
                0.9999995231628418,
                0.9999977350234985,
                0.9999992847442627
            ],
            "min" : [
                -0.9999992251396179,
                -1.0000022649765015,
                -0.999998927116394
            ],
            "type" : "VEC3"
        },
        {
            "bufferView" : 5,
            "componentType" : 5126,
            "count" : 559,
            "type" : "VEC3"
        },
        {
            "bufferView" : 6,
            "componentType" : 5126,
            "count" : 559,
            "type" : "VEC2"
        },
        {
            "bufferView" : 7,
            "componentType" : 5123,
            "count" : 2880,
            "type" : "SCALAR"
        },
        {
            "bufferView" : 8,
            "componentType" : 5126,
            "count" : 21,
            "max" : [
                0.8333333333333334
            ],
            "min" : [
                0
            ],
            "type" : "SCALAR"
        },
        {
            "bufferView" : 9,
            "componentType" : 5126,
            "count" : 21,
            "type" : "VEC3"
        },
        {
            "bufferView" : 10,
            "componentType" : 5126,
            "count" : 26,
            "max" : [
                1.0416666666666667
            ],
            "min" : [
                0
            ],
            "type" : "SCALAR"
        },
        {
            "bufferView" : 11,
            "componentType" : 5126,
            "count" : 26,
            "type" : "VEC4"
        },
        {
            "bufferView" : 12,
            "componentType" : 5126,
            "count" : 30,
            "max" : [
                1.2083333333333333
            ],
            "min" : [
                0
            ],
            "type" : "SCALAR"
        },
        {
            "bufferView" : 13,
            "componentType" : 5126,
            "count" : 30,
            "type" : "VEC3"
        },
        {
            "bufferView" : 14,
            "componentType" : 5126,
            "count" : 1,
            "max" : [
                1.2083333333333333
            ],
            "min" : [
                1.2083333333333333
            ],
            "type" : "SCALAR"
        },
        {
            "bufferView" : 15,
            "componentType" : 5126,
            "count" : 1,
            "type" : "VEC4"
        },
        {
            "bufferView" : 16,
            "componentType" : 5126,
            "count" : 1,
            "type" : "VEC3"
        }
    ],
    "bufferViews" : [
        {
            "buffer" : 0,
            "byteLength" : 8856,
            "byteOffset" : 0
        },
        {
            "buffer" : 0,
            "byteLength" : 8856,
            "byteOffset" : 8856
        },
        {
            "buffer" : 0,
            "byteLength" : 5904,
            "byteOffset" : 17712
        },
        {
            "buffer" : 0,
            "byteLength" : 7560,
            "byteOffset" : 23616
        },
        {
            "buffer" : 0,
            "byteLength" : 6708,
            "byteOffset" : 31176
        },
        {
            "buffer" : 0,
            "byteLength" : 6708,
            "byteOffset" : 37884
        },
        {
            "buffer" : 0,
            "byteLength" : 4472,
            "byteOffset" : 44592
        },
        {
            "buffer" : 0,
            "byteLength" : 5760,
            "byteOffset" : 49064
        },
        {
            "buffer" : 0,
            "byteLength" : 84,
            "byteOffset" : 54824
        },
        {
            "buffer" : 0,
            "byteLength" : 252,
            "byteOffset" : 54908
        },
        {
            "buffer" : 0,
            "byteLength" : 104,
            "byteOffset" : 55160
        },
        {
            "buffer" : 0,
            "byteLength" : 416,
            "byteOffset" : 55264
        },
        {
            "buffer" : 0,
            "byteLength" : 120,
            "byteOffset" : 55680
        },
        {
            "buffer" : 0,
            "byteLength" : 360,
            "byteOffset" : 55800
        },
        {
            "buffer" : 0,
            "byteLength" : 4,
            "byteOffset" : 56160
        },
        {
            "buffer" : 0,
            "byteLength" : 16,
            "byteOffset" : 56164
        },
        {
            "buffer" : 0,
            "byteLength" : 12,
            "byteOffset" : 56180
        }
    ],
    "buffers" : [
        {
            "byteLength" : 56192,
            "uri" : "data:application/octet-stream;base64,"
        }
    ]
}
