{
    "asset" : {
        "generator" : "Khronos glTF Blender I/O v1.8.19",
        "version" : "2.0"
    },
    "scene" : 0,
    "scenes" : [
        {
            "name" : "Scene",
            "nodes" : [
                0
            ]
        }
    ],
    "nodes" : [
        {
            "mesh" : 0,
            "name" : "Cube.011",
            "rotation" : [
                -0.6876022219657898,
                0.16943903267383575,
                0.17001695930957794,
                0.6852648854255676
            ],
            "scale" : [
                0.6156809329986572,
                0.6156809329986572,
                0
            ]
        }
    ],
    "animations" : [
        {
            "channels" : [
                {
                    "sampler" : 0,
                    "target" : {
                        "node" : 0,
                        "path" : "scale"
                    }
                },
                {
                    "sampler" : 1,
                    "target" : {
                        "node" : 0,
                        "path" : "rotation"
                    }
                }
            ],
            "name" : "Cube.011Action",
            "samplers" : [
                {
                    "input" : 4,
                    "interpolation" : "LINEAR",
                    "output" : 5
                },
                {
                    "input" : 4,
                    "interpolation" : "LINEAR",
                    "output" : 6
                }
            ]
        }
    ],
    "materials" : [
        {
            "doubleSided" : true,
            "name" : "A7",
            "pbrMetallicRoughness" : {
                "baseColorFactor" : [
                    0.4560985267162323,
                    0.46654871106147766,
                    0.4987298250198364,
                    1
                ],
                "metallicFactor" : 0,
                "roughnessFactor" : 0.5
            }
        }
    ],
    "meshes" : [
        {
            "name" : "Cube.014",
            "primitives" : [
                {
                    "attributes" : {
                        "POSITION" : 0,
                        "NORMAL" : 1,
                        "TEXCOORD_0" : 2
                    },
                    "indices" : 3,
                    "material" : 0
                }
            ]
        }
    ],
    "accessors" : [
        {
            "bufferView" : 0,
            "componentType" : 5126,
            "count" : 296,
            "max" : [
                3.816413164138794,
                4.349720001220703,
                1
            ],
            "min" : [
                -3.8197195529937744,
                -4.231237411499023,
                -1
            ],
            "type" : "VEC3"
        },
        {
            "bufferView" : 1,
            "componentType" : 5126,
            "count" : 296,
            "type" : "VEC3"
        },
        {
            "bufferView" : 2,
            "componentType" : 5126,
            "count" : 296,
            "type" : "VEC2"
        },
        {
            "bufferView" : 3,
            "componentType" : 5123,
            "count" : 1524,
            "type" : "SCALAR"
        },
        {
            "bufferView" : 4,
            "componentType" : 5126,
            "count" : 21,
            "max" : [
                0.8333333333333334
            ],
            "min" : [
                0
            ],
            "type" : "SCALAR"
        },
        {
            "bufferView" : 5,
            "componentType" : 5126,
            "count" : 21,
            "type" : "VEC3"
        },
        {
            "bufferView" : 6,
            "componentType" : 5126,
            "count" : 21,
            "type" : "VEC4"
        }
    ],
    "bufferViews" : [
        {
            "buffer" : 0,
            "byteLength" : 3552,
            "byteOffset" : 0
        },
        {
            "buffer" : 0,
            "byteLength" : 3552,
            "byteOffset" : 3552
        },
        {
            "buffer" : 0,
            "byteLength" : 2368,
            "byteOffset" : 7104
        },
        {
            "buffer" : 0,
            "byteLength" : 3048,
            "byteOffset" : 9472
        },
        {
            "buffer" : 0,
            "byteLength" : 84,
            "byteOffset" : 12520
        },
        {
            "buffer" : 0,
            "byteLength" : 252,
            "byteOffset" : 12604
        },
        {
            "buffer" : 0,
            "byteLength" : 336,
            "byteOffset" : 12856
        }
    ],
    "buffers" : [
        {
            "byteLength" : 13192,
            "uri" : "data:application/octet-stream;base64,"
        }
    ]
}
