{
    "asset" : {
        "generator" : "Khronos glTF Blender I/O v1.8.19",
        "version" : "2.0"
    },
    "scene" : 0,
    "scenes" : [
        {
            "name" : "Scene",
            "nodes" : [
                0
            ]
        }
    ],
    "nodes" : [
        {
            "mesh" : 0,
            "name" : "Text",
            "rotation" : [
                0.7928065061569214,
                0.06240687519311905,
                0.27031388878822327,
                0.542672872543335
            ],
            "scale" : [
                0,
                0,
                0
            ]
        }
    ],
    "animations" : [
        {
            "channels" : [
                {
                    "sampler" : 0,
                    "target" : {
                        "node" : 0,
                        "path" : "scale"
                    }
                },
                {
                    "sampler" : 1,
                    "target" : {
                        "node" : 0,
                        "path" : "rotation"
                    }
                }
            ],
            "name" : "TextAction.001",
            "samplers" : [
                {
                    "input" : 4,
                    "interpolation" : "LINEAR",
                    "output" : 5
                },
                {
                    "input" : 6,
                    "interpolation" : "LINEAR",
                    "output" : 7
                }
            ]
        }
    ],
    "materials" : [
        {
            "doubleSided" : true,
            "name" : "A3",
            "pbrMetallicRoughness" : {
                "baseColorFactor" : [
                    0.6957283020019531,
                    0.8344497680664062,
                    0.7671853303909302,
                    1
                ],
                "metallicFactor" : 0,
                "roughnessFactor" : 0.6272727251052856
            }
        }
    ],
    "meshes" : [
        {
            "name" : "Text",
            "primitives" : [
                {
                    "attributes" : {
                        "POSITION" : 0,
                        "NORMAL" : 1,
                        "TEXCOORD_0" : 2
                    },
                    "indices" : 3,
                    "material" : 0
                }
            ]
        }
    ],
    "accessors" : [
        {
            "bufferView" : 0,
            "componentType" : 5126,
            "count" : 3688,
            "max" : [
                0.20834213495254517,
                0.09749999642372131,
                0.23594951629638672
            ],
            "min" : [
                -0.204605832695961,
                -0.09749999642372131,
                -0.2271302491426468
            ],
            "type" : "VEC3"
        },
        {
            "bufferView" : 1,
            "componentType" : 5126,
            "count" : 3688,
            "type" : "VEC3"
        },
        {
            "bufferView" : 2,
            "componentType" : 5126,
            "count" : 3688,
            "type" : "VEC2"
        },
        {
            "bufferView" : 3,
            "componentType" : 5123,
            "count" : 16404,
            "type" : "SCALAR"
        },
        {
            "bufferView" : 4,
            "componentType" : 5126,
            "count" : 16,
            "max" : [
                0.625
            ],
            "min" : [
                0
            ],
            "type" : "SCALAR"
        },
        {
            "bufferView" : 5,
            "componentType" : 5126,
            "count" : 16,
            "type" : "VEC3"
        },
        {
            "bufferView" : 6,
            "componentType" : 5126,
            "count" : 24,
            "max" : [
                0.9583333333333334
            ],
            "min" : [
                0
            ],
            "type" : "SCALAR"
        },
        {
            "bufferView" : 7,
            "componentType" : 5126,
            "count" : 24,
            "type" : "VEC4"
        }
    ],
    "bufferViews" : [
        {
            "buffer" : 0,
            "byteLength" : 44256,
            "byteOffset" : 0
        },
        {
            "buffer" : 0,
            "byteLength" : 44256,
            "byteOffset" : 44256
        },
        {
            "buffer" : 0,
            "byteLength" : 29504,
            "byteOffset" : 88512
        },
        {
            "buffer" : 0,
            "byteLength" : 32808,
            "byteOffset" : 118016
        },
        {
            "buffer" : 0,
            "byteLength" : 64,
            "byteOffset" : 150824
        },
        {
            "buffer" : 0,
            "byteLength" : 192,
            "byteOffset" : 150888
        },
        {
            "buffer" : 0,
            "byteLength" : 96,
            "byteOffset" : 151080
        },
        {
            "buffer" : 0,
            "byteLength" : 384,
            "byteOffset" : 151176
        }
    ],
    "buffers" : [
        {
            "byteLength" : 151560,
            "uri" : "data:application/octet-stream;base64,"
        }
    ]
}
