{
    "asset" : {
        "generator" : "Khronos glTF Blender I/O v1.8.19",
        "version" : "2.0"
    },
    "scene" : 0,
    "scenes" : [
        {
            "name" : "Scene",
            "nodes" : [
                0
            ]
        }
    ],
    "nodes" : [
        {
            "mesh" : 0,
            "name" : "Cylinder.026",
            "scale" : [
                0,
                0,
                0
            ]
        }
    ],
    "animations" : [
        {
            "channels" : [
                {
                    "sampler" : 0,
                    "target" : {
                        "node" : 0,
                        "path" : "scale"
                    }
                },
                {
                    "sampler" : 1,
                    "target" : {
                        "node" : 0,
                        "path" : "rotation"
                    }
                }
            ],
            "name" : "Cylinder.026Action",
            "samplers" : [
                {
                    "input" : 4,
                    "interpolation" : "LINEAR",
                    "output" : 5
                },
                {
                    "input" : 4,
                    "interpolation" : "LINEAR",
                    "output" : 6
                }
            ]
        }
    ],
    "materials" : [
        {
            "doubleSided" : true,
            "name" : "A2",
            "pbrMetallicRoughness" : {
                "baseColorFactor" : [
                    0.4508383274078369,
                    0.43393054604530334,
                    0.4465758502483368,
                    1
                ],
                "metallicFactor" : 0,
                "roughnessFactor" : 0.6272727251052856
            }
        }
    ],
    "meshes" : [
        {
            "name" : "Cylinder.044",
            "primitives" : [
                {
                    "attributes" : {
                        "POSITION" : 0,
                        "NORMAL" : 1,
                        "TEXCOORD_0" : 2
                    },
                    "indices" : 3,
                    "material" : 0
                }
            ]
        }
    ],
    "accessors" : [
        {
            "bufferView" : 0,
            "componentType" : 5126,
            "count" : 1164,
            "max" : [
                0.9996926784515381,
                19.934415817260742,
                1.000307321548462
            ],
            "min" : [
                -1.000307321548462,
                -19.946672439575195,
                -0.9996927380561829
            ],
            "type" : "VEC3"
        },
        {
            "bufferView" : 1,
            "componentType" : 5126,
            "count" : 1164,
            "type" : "VEC3"
        },
        {
            "bufferView" : 2,
            "componentType" : 5126,
            "count" : 1164,
            "type" : "VEC2"
        },
        {
            "bufferView" : 3,
            "componentType" : 5123,
            "count" : 5724,
            "type" : "SCALAR"
        },
        {
            "bufferView" : 4,
            "componentType" : 5126,
            "count" : 20,
            "max" : [
                0.8333333333333334
            ],
            "min" : [
                0.041666666666666664
            ],
            "type" : "SCALAR"
        },
        {
            "bufferView" : 5,
            "componentType" : 5126,
            "count" : 20,
            "type" : "VEC3"
        },
        {
            "bufferView" : 6,
            "componentType" : 5126,
            "count" : 20,
            "type" : "VEC4"
        }
    ],
    "bufferViews" : [
        {
            "buffer" : 0,
            "byteLength" : 13968,
            "byteOffset" : 0
        },
        {
            "buffer" : 0,
            "byteLength" : 13968,
            "byteOffset" : 13968
        },
        {
            "buffer" : 0,
            "byteLength" : 9312,
            "byteOffset" : 27936
        },
        {
            "buffer" : 0,
            "byteLength" : 11448,
            "byteOffset" : 37248
        },
        {
            "buffer" : 0,
            "byteLength" : 80,
            "byteOffset" : 48696
        },
        {
            "buffer" : 0,
            "byteLength" : 240,
            "byteOffset" : 48776
        },
        {
            "buffer" : 0,
            "byteLength" : 320,
            "byteOffset" : 49016
        }
    ],
    "buffers" : [
        {
            "byteLength" : 49336,
            "uri" : "data:application/octet-stream;base64,"
        }
    ]
}
